<svg width="282" height="311" viewBox="0 0 282 311" fill="none" xmlns="http://www.w3.org/2000/svg">
<rect x="0.541992" y="10.6862" width="280.554" height="299.855" rx="54" fill="white"/>
<path d="M0.541504 62.2872C0.541504 32.4639 24.7181 8.28723 54.5415 8.28723L227.095 8.28723C256.919 8.28723 281.095 32.4638 281.095 62.2872V79.4529L0.541504 79.4529L0.541504 62.2872Z" fill="#DFBFFF"/>
<ellipse cx="47.5419" cy="39.4722" rx="10.8461" ry="11.9942" fill="black"/>
<ellipse cx="78.6342" cy="39.4722" rx="10.8461" ry="11.9942" fill="black"/>
<ellipse cx="109.727" cy="39.4722" rx="10.8461" ry="11.9942" fill="black"/>
<ellipse cx="140.819" cy="39.4722" rx="10.8461" ry="11.9942" fill="black"/>
<ellipse cx="171.911" cy="39.4722" rx="10.8461" ry="11.9942" fill="black"/>
<ellipse cx="203.003" cy="39.4722" rx="10.8461" ry="11.9942" fill="black"/>
<ellipse cx="234.096" cy="39.4721" rx="10.8461" ry="11.9942" fill="black"/>
<rect x="41.7573" y="0.291016" width="5.06154" height="35.183" rx="2.53077" fill="#B4B4B4"/>
<rect x="48.9878" y="0.291016" width="5.06154" height="35.183" rx="2.53077" fill="#B4B4B4"/>
<rect x="72.8496" y="0.291016" width="5.06154" height="35.183" rx="2.53077" fill="#B4B4B4"/>
<rect x="80.0806" y="0.291016" width="5.06154" height="35.183" rx="2.53077" fill="#B4B4B4"/>
<rect x="103.941" y="0.29126" width="5.06154" height="35.183" rx="2.53077" fill="#B4B4B4"/>
<rect x="111.173" y="0.291138" width="5.06154" height="35.183" rx="2.53077" fill="#B4B4B4"/>
<rect x="135.034" y="0.291138" width="5.06154" height="35.183" rx="2.53077" fill="#B4B4B4"/>
<rect x="142.265" y="0.291016" width="5.06154" height="35.183" rx="2.53077" fill="#B4B4B4"/>
<rect x="166.126" y="0.291016" width="5.06154" height="35.183" rx="2.53077" fill="#B4B4B4"/>
<rect x="173.357" y="0.290894" width="5.06154" height="35.183" rx="2.53077" fill="#B4B4B4"/>
<rect x="197.219" y="0.291138" width="5.06154" height="35.183" rx="2.53077" fill="#B4B4B4"/>
<rect x="204.449" y="0.291138" width="5.06154" height="35.183" rx="2.53077" fill="#B4B4B4"/>
<rect x="228.311" y="0.291016" width="5.06154" height="35.183" rx="2.53077" fill="#B4B4B4"/>
<rect x="235.542" y="0.291016" width="5.06154" height="35.183" rx="2.53077" fill="#B4B4B4"/>
<line x1="22.2349" y1="114.136" x2="257.959" y2="114.136" stroke="#ABABAB"/>
<line x1="22.2344" y1="142.322" x2="257.958" y2="142.322" stroke="#ABABAB"/>
<line x1="22.2339" y1="170.309" x2="257.958" y2="170.309" stroke="#ABABAB"/>
<line x1="22.2344" y1="198.295" x2="257.958" y2="198.295" stroke="#ABABAB"/>
<line x1="22.2339" y1="226.282" x2="257.958" y2="226.282" stroke="#ABABAB"/>
<line x1="22.2339" y1="254.868" x2="257.958" y2="254.868" stroke="#ABABAB"/>
</svg>
