<svg width="34" height="38" viewBox="0 0 34 38" fill="none" xmlns="http://www.w3.org/2000/svg">
<path d="M21.9927 17.6549C21.9927 18.7885 21.1402 19.7177 20.0605 19.7177C18.9997 19.7177 18.1283 18.7885 18.1283 17.6549C18.1283 16.5213 18.9807 15.5921 20.0605 15.5921C21.1402 15.5921 21.9927 16.5213 21.9927 17.6549ZM13.1463 15.5921C12.0666 15.5921 11.2142 16.5213 11.2142 17.6549C11.2142 18.7885 12.0855 19.7177 13.1463 19.7177C14.2261 19.7177 15.0785 18.7885 15.0785 17.6549C15.0975 16.5213 14.2261 15.5921 13.1463 15.5921ZM33.15 3.82832V37.1682C28.3777 33.0308 29.904 34.4003 24.3605 29.3443L25.3645 32.7823H3.88329C1.74274 32.7823 0 31.0726 0 28.954V3.82832C0 1.70974 1.74274 0 3.88329 0H29.2667C31.4073 0 33.15 1.70974 33.15 3.82832ZM27.7513 21.446C27.7513 15.462 25.0235 10.6115 25.0235 10.6115C22.2957 8.60443 19.7006 8.66019 19.7006 8.66019L19.4354 8.95753C22.6557 9.9239 24.1521 11.3177 24.1521 11.3177C19.6524 8.89822 14.3667 8.89779 10.0018 10.7788C9.30094 11.0947 8.8842 11.3177 8.8842 11.3177C8.8842 11.3177 10.4565 9.84957 13.8662 8.88319L13.6767 8.66019C13.6767 8.66019 11.0816 8.60443 8.3538 10.6115C8.3538 10.6115 5.62603 15.462 5.62603 21.446C5.62603 21.446 7.21723 24.1407 11.4036 24.2708C11.4036 24.2708 12.1045 23.4345 12.6728 22.7283C10.267 22.0221 9.35777 20.5354 9.35777 20.5354C9.63644 20.7268 10.096 20.9748 10.1344 21C13.3318 22.7567 17.8735 23.3322 21.9548 21.6505C22.6178 21.4089 23.3565 21.0558 24.1332 20.554C24.1332 20.554 23.1861 22.0779 20.7045 22.7655C21.2728 23.4717 21.9548 24.2708 21.9548 24.2708C26.1411 24.1407 27.7513 21.446 27.7513 21.446Z" fill="white"/>
</svg>
