<svg width="27" height="27" viewBox="0 0 27 27" fill="none" xmlns="http://www.w3.org/2000/svg">
<path fill-rule="evenodd" clip-rule="evenodd" d="M2.7 0H24.3C25.7912 0 27 1.20883 27 2.7V24.3C27 25.7912 25.7912 27 24.3 27H2.7C1.20883 27 0 25.7912 0 24.3V2.7C0 1.20883 1.20883 0 2.7 0ZM2.7 2.7V24.3H24.3V2.7H2.7ZM14.85 9.45C14.151 9.45 13.4126 9.66365 12.7604 10.0604L12.15 9.45H10.8V18.9H13.5V13.5C13.5 12.7227 14.3018 12.15 14.85 12.15H16.2C16.7482 12.15 17.55 12.7227 17.55 13.5V18.9H20.25V13.5C20.25 10.9987 18.0818 9.45 16.2 9.45H14.85ZM8.1 8.1C8.84558 8.1 9.45 7.49558 9.45 6.75C9.45 6.00442 8.84558 5.4 8.1 5.4C7.35442 5.4 6.75 6.00442 6.75 6.75C6.75 7.49558 7.35442 8.1 8.1 8.1ZM6.75 9.45V18.9H9.45V9.45H6.75Z" fill="white"/>
</svg>
